<?xml version="1.0" encoding="UTF-8"?>
<svg id="Livello_2" data-name="Livello 2" xmlns="http://www.w3.org/2000/svg" viewBox="0 0 105.09 103.94">
  <defs>
    <style>
      .cls-1 {
        fill: #fff;
      }

      .cls-2 {
        fill: #802a51;
      }

      .cls-3 {
        fill: #138da5;
      }
    </style>
  </defs>
  <g id="Livello_1-2" data-name="Livello 1">
    <g>
      <g>
        <polygon class="cls-2" points="86.61 0 10.12 0 1.15 0 0 0 0 85.4 2.41 85.4 2.41 2.35 86.61 2.35 86.61 0"/>
        <polygon class="cls-3" points="18.54 103.94 94.97 103.94 103.94 103.94 105.09 103.94 105.09 18.54 102.74 18.54 102.74 101.59 18.54 101.59 18.54 103.94"/>
      </g>
      <g>
        <path class="cls-1" d="m63.64,55.33l-4.05-8.91c-.05,0-.11-.05-.16-.05-3.28-1.2-5.63-2.3-7.05-3.44-.44-.33-.82-.71-1.26-1.09l4.92,10.39c2.41,2.19,4.65,3.34,6.62,3.34.44-.05.71-.11.98-.22Z"/>
        <path class="cls-1" d="m45.33,30.89v-.87l-24.28,51.23h6.45l19.57-43.25c-.11-.22-.22-.38-.27-.6-.93-2.13-1.48-4.32-1.48-6.51Z"/>
        <path class="cls-1" d="m67.09,81.25h6.01l-6.18-13.67c-1.86.6-3.83.93-5.9.93l6.07,12.74Z"/>
        <path class="cls-1" d="m74.3,45.93c-.93-1.64-2.08-2.95-3.39-3.83-1.53-1.04-3.88-2.24-6.94-3.55-5.41-2.19-8.15-5.08-8.15-8.58,0-1.86.66-3.55,1.97-4.92s2.95-2.08,4.81-2.08c1.75,0,3.99.77,7.05,2.46l3.55-3.88c-2.9-2.02-6.23-2.95-10.22-2.95s-7.11,1.15-9.51,3.44c-2.41,2.3-3.55,4.59-3.55,8.31,0,1.59.38,3.23,1.09,4.76s1.59,2.68,2.57,3.44c1.09.82,3.12,2.41,6.01,3.44,6.62,2.41,9.79,5.36,9.79,9.13,0,1.97-.87,3.77-2.52,5.36s-3.51,2.16-5.41,2.41c-4.49.58-11.48-3.15-13.34-4.93l-2.08,4.49c3.05,2.82,12.03,6.07,14.76,6.07,4.1,0,7.49-1.31,10.5-4.05,2.95-2.68,4.37-5.74,4.37-9.29,0-1.91-.44-3.66-1.37-5.25Z"/>
      </g>
    </g>
  </g>
</svg>