<?xml version="1.0" encoding="UTF-8"?>
<svg id="Livello_2" data-name="Livello 2" xmlns="http://www.w3.org/2000/svg" viewBox="0 0 605.42 103.94">
  <defs>
    <style>
      .cls-1 {
        fill: #fff;
      }

      .cls-2 {
        fill: #802a51;
      }

      .cls-3 {
        fill: #138da5;
      }
    </style>
  </defs>
  <g id="Livello_1-2" data-name="Livello 1">
    <g>
      <g>
        <g>
          <polygon class="cls-2" points="86.61 0 10.12 0 1.15 0 0 0 0 85.4 2.41 85.4 2.41 2.35 86.61 2.35 86.61 0"/>
          <polygon class="cls-3" points="18.54 103.94 94.97 103.94 103.94 103.94 105.09 103.94 105.09 18.54 102.74 18.54 102.74 101.59 18.54 101.59 18.54 103.94"/>
        </g>
        <g>
          <path class="cls-1" d="m63.64,55.33l-4.05-8.91c-.05,0-.11-.05-.16-.05-3.28-1.2-5.63-2.3-7.05-3.44-.44-.33-.82-.71-1.26-1.09l4.92,10.39c2.41,2.19,4.65,3.34,6.62,3.34.44-.05.71-.11.98-.22Z"/>
          <path class="cls-1" d="m45.33,30.89v-.87l-24.28,51.23h6.45l19.57-43.25c-.11-.22-.22-.38-.27-.6-.93-2.13-1.48-4.32-1.48-6.51Z"/>
          <path class="cls-1" d="m67.09,81.25h6.01l-6.18-13.67c-1.86.6-3.83.93-5.9.93l6.07,12.74Z"/>
          <path class="cls-1" d="m74.3,45.93c-.93-1.64-2.08-2.95-3.39-3.83-1.53-1.04-3.88-2.24-6.94-3.55-5.41-2.19-8.15-5.08-8.15-8.58,0-1.86.66-3.55,1.97-4.92s2.95-2.08,4.81-2.08c1.75,0,3.99.77,7.05,2.46l3.55-3.88c-2.9-2.02-6.23-2.95-10.22-2.95s-7.11,1.15-9.51,3.44c-2.41,2.3-3.55,4.59-3.55,8.31,0,1.59.38,3.23,1.09,4.76s1.59,2.68,2.57,3.44c1.09.82,3.12,2.41,6.01,3.44,6.62,2.41,9.79,5.36,9.79,9.13,0,1.97-.87,3.77-2.52,5.36s-3.51,2.16-5.41,2.41c-4.49.58-11.48-3.15-13.34-4.93l-2.08,4.49c3.05,2.82,12.03,6.07,14.76,6.07,4.1,0,7.49-1.31,10.5-4.05,2.95-2.68,4.37-5.74,4.37-9.29,0-1.91-.44-3.66-1.37-5.25Z"/>
        </g>
      </g>
      <g>
        <polygon class="cls-1" points="185.9 30.14 179.11 30.14 179.11 81.11 184.71 81.11 184.71 40.07 186.53 40.07 212.88 81.11 219.25 81.11 219.25 30.14 213.65 30.14 213.65 70.55 211.77 70.55 185.9 30.14"/>
        <path class="cls-1" d="m265.32,39.58c-2.45-3.43-5.45-5.8-9.02-7.2-3.64-1.4-7.62-2.17-11.75-2.17h-12.52v5.03h12.52c4.26,0,8.04.98,11.26,3.01,3.29,2.03,5.8,5.1,7.48,9.16.56,1.26.98,2.66,1.26,4.13.28,1.47.42,2.94.42,4.33,0,3.15-.49,6.08-1.4,8.53-.98,2.52-2.38,4.68-4.13,6.43-1.82,1.75-3.99,3.08-6.57,3.99-2.52.91-5.38,1.33-8.53,1.33h-12.31v4.96h12.31c3.85,0,7.48-.56,10.77-1.61,3.22-1.05,6.29-3.01,9.09-5.8,1.05-1.05,1.96-2.24,2.73-3.64.77-1.47,1.47-3.01,1.96-4.54.49-1.61.91-3.22,1.19-4.89s.42-3.29.42-4.75c0-2.87-.49-5.73-1.4-8.53-.91-2.87-2.17-5.45-3.78-7.76Z"/>
        <path class="cls-1" d="m296.02,61.39h2.17c.84,0,1.68-.07,2.52-.28s1.61-.42,2.38-.7c3.22-1.19,5.59-3.01,7.06-5.45,1.47-2.52,2.24-5.45,2.24-8.88,0-2.17-.35-4.33-1.12-6.43-.7-2.03-1.89-3.85-3.36-5.31-1.82-1.75-3.85-2.87-6.15-3.36-2.45-.49-4.89-.77-7.41-.77h-15.38v4.96h14.89c1.68,0,3.22.21,4.75.63,1.54.42,2.94,1.12,4.13,2.03,1.26.91,2.24,2.1,2.94,3.43.7,1.4,1.05,3.01,1.05,4.89,0,2.31-.49,4.26-1.47,5.8-.98,1.47-2.24,2.66-3.78,3.57-1.47.84-3.22,1.4-5.03,1.75-1.82.28-3.57.42-5.31.42h-3.29l16.08,23.56h6.99l-14.89-19.86Z"/>
        <polygon class="cls-1" points="347.82 35.31 347.82 30.28 321.54 30.28 321.54 81.11 347.82 81.11 347.82 76.14 327.13 76.14 327.13 57.97 339.36 57.97 339.36 53 327.13 53 327.13 35.31 347.82 35.31"/>
        <path class="cls-1" d="m459.85,59.5c-1.05-1.82-2.31-3.22-3.85-4.26-1.61-1.12-3.36-1.96-5.17-2.59-1.96-.7-3.85-1.33-5.52-2.03-1.82-.7-3.29-1.61-4.47-2.66-1.33-1.19-2.03-2.87-2.03-4.96,0-1.05.21-2.1.63-3.08s.98-1.82,1.68-2.59,1.54-1.4,2.52-1.82,2.03-.63,3.08-.63c2.59,0,4.61.77,6.08,2.38,1.12,1.12,2.52,2.87,2.87,5.1h5.31c-.21-1.12-.7-2.24-1.19-3.36-.14-.35-.28-.7-.42-.98-.7-1.61-1.61-3.01-2.8-4.13s-2.66-2.03-4.26-2.66c-1.68-.63-3.57-.91-5.52-.91-1.82,0-3.5.35-5.1.98s-3.01,1.54-4.2,2.66c-1.19,1.12-2.17,2.52-2.87,4.06-.7,1.54-1.05,3.22-1.05,5.03,0,2.31.35,4.26,1.05,5.8.7,1.47,1.61,2.73,2.8,3.71,1.19,1.05,2.66,1.89,4.26,2.59,1.68.77,3.57,1.47,5.52,2.24,1.12.42,2.17.84,3.15,1.26,1.05.49,2.03.98,2.87,1.68.91.7,1.61,1.54,2.17,2.59.49,1.05.77,2.38.77,3.85,0,2.8-.84,5.17-2.45,6.92-1.68,1.82-3.99,2.73-6.85,2.73-1.54,0-2.87-.28-4.06-.84-1.12-.56-2.1-1.33-2.94-2.31-.77-.98-1.4-2.1-1.82-3.36-.28-.91-.49-1.82-.56-2.8h-5.31c.07,1.75.42,3.43,1.05,4.96.7,1.82,1.68,3.43,3.01,4.75,1.26,1.33,2.87,2.38,4.61,3.15s3.78,1.12,6.01,1.12,4.2-.35,6.01-1.05,3.36-1.68,4.61-2.94c1.26-1.26,2.31-2.73,3.01-4.54.7-1.75,1.12-3.78,1.12-5.87-.21-3.01-.7-5.45-1.75-7.2Z"/>
        <polygon class="cls-1" points="529.91 30.14 524.18 30.14 524.18 81.11 551.93 81.11 551.93 76.21 529.91 76.21 529.91 30.14"/>
        <polygon class="cls-1" points="159.05 30.21 151.08 30.21 126.96 81.11 133.39 81.11 152.83 38.04 155.2 38.04 158.42 54.4 152.48 54.4 152.48 59.71 159.47 59.71 163.66 81.11 169.19 81.11 159.05 30.21"/>
        <polygon class="cls-1" points="390.12 30.21 382.15 30.21 358.03 81.11 364.53 81.11 383.9 38.04 386.21 38.04 389.49 54.4 383.55 54.4 383.55 59.71 390.54 59.71 394.74 81.11 400.26 81.11 390.12 30.21"/>
        <polygon class="cls-1" points="500.41 30.21 492.5 30.21 468.38 81.11 474.75 81.11 494.25 38.04 496.56 38.04 499.85 54.4 493.9 54.4 493.9 59.71 500.89 59.71 505.09 81.11 510.68 81.11 500.41 30.21"/>
        <polygon class="cls-1" points="595.28 30.21 587.24 30.21 563.12 81.11 569.62 81.11 588.99 38.04 591.44 38.04 594.58 54.4 586.54 54.4 586.54 59.71 595.63 59.71 599.83 81.11 605.42 81.11 595.28 30.21"/>
        <rect class="cls-1" x="231.97" y="40.21" width="5.03" height="10.77"/>
        <rect class="cls-1" x="278.89" y="70.34" width="5.03" height="10.77"/>
      </g>
    </g>
  </g>
</svg>